inDegrees=no
num_controls=7
num_derivatives=13
num_iterations=67
num_multipliers=7
num_parameters=0
num_slacks=7
num_states=26
objective=0.426025
objective_accelerations=0.060221
objective_balance=0.001371
objective_effort=0.015176
objective_height=0.343353
objective_ligament=0.005904
solver_duration=981.252790
status=Solve_Succeeded
success=true
DataType=double
version=3
OpenSimVersion=4.5
endheader
time	/jointset/ground_pelvis/pelvis_tilt/value	/jointset/ground_pelvis/pelvis_tx/value	/jointset/ground_pelvis/pelvis_ty/value	/jointset/hip_l/hip_flexion_l/value	/jointset/hip_l/hip_adduction_l/value	/jointset/hip_l/hip_rotation_l/value	/jointset/back/lumbar_extension/value	/jointset/patellofemoral_l/patellar_flexion_l/value	/jointset/knee_l/knee_flexion_l/value	/jointset/knee_l/knee_adduction_l/value	/jointset/knee_l/knee_rotation_l/value	/jointset/ankle_l/ankle_angle_l/value	/jointset/subtalar_l/subtalar_angle_l/value	/jointset/ground_pelvis/pelvis_tilt/speed	/jointset/ground_pelvis/pelvis_tx/speed	/jointset/ground_pelvis/pelvis_ty/speed	/jointset/hip_l/hip_flexion_l/speed	/jointset/hip_l/hip_adduction_l/speed	/jointset/hip_l/hip_rotation_l/speed	/jointset/back/lumbar_extension/speed	/jointset/patellofemoral_l/patellar_flexion_l/speed	/jointset/knee_l/knee_flexion_l/speed	/jointset/knee_l/knee_adduction_l/speed	/jointset/knee_l/knee_rotation_l/speed	/jointset/ankle_l/ankle_angle_l/speed	/jointset/subtalar_l/subtalar_angle_l/speed	/forceset/tau_hip_flexion_l	/forceset/tau_hip_adduction_l	/forceset/tau_hip_rotation_l	/forceset/tau_knee_flexion_l	/forceset/tau_ankle_angle_l	/forceset/tau_subtalar_angle_l	/forceset/tau_lumbar_extension	lambda_cid13_p0	lambda_cid13_p1	lambda_cid13_p2	lambda_cid13_p3	lambda_cid13_p4	lambda_cid13_p5	lambda_cid14_p0	/jointset/ground_pelvis/pelvis_tilt/accel	/jointset/ground_pelvis/pelvis_tx/accel	/jointset/ground_pelvis/pelvis_ty/accel	/jointset/hip_l/hip_flexion_l/accel	/jointset/hip_l/hip_adduction_l/accel	/jointset/hip_l/hip_rotation_l/accel	/jointset/back/lumbar_extension/accel	/jointset/patellofemoral_l/patellar_flexion_l/accel	/jointset/knee_l/knee_flexion_l/accel	/jointset/knee_l/knee_adduction_l/accel	/jointset/knee_l/knee_rotation_l/accel	/jointset/ankle_l/ankle_angle_l/accel	/jointset/subtalar_l/subtalar_angle_l/accel	gamma_cid13_p0	gamma_cid13_p1	gamma_cid13_p2	gamma_cid13_p3	gamma_cid13_p4	gamma_cid13_p5	gamma_cid14_p0
0	0.04903345337011544	0.1076314710573687	0.90296949674577	0.1266922784136757	-0.3692349655573535	-0.2208026702399258	-0.2144969558742783	0.2051545070142016	0.2051545070141877	-0.1729872907872298	-0.155808900641594	0.09024313228550125	0.07984619010200962	0	0	0	0	0	0	0	0	0	0	0	0	0	0.1137452056541627	-0.05067298180325532	-0.008790891370134704	-0.246883402269918	0.1864778410220795	-0.09335735136397283	-0.04745055022062555	28.85194428226224	36.79192484526627	-7.629955609085734	-19.7770521610154	-437.0990924545125	-42.3342230098218	-26.08646886703556	-3.270238506594646	-1.070820195864466	-0.8977619787295058	11.71990553538859	-0.3009938404108535	3.323778564002517	-3.634692229966728	11.30894739397765	11.30894739397738	2.1170454680175	-1.126977983489221	3.822382204944501	0.7831053300212039	-1.065514294919827e-08	4.280719902730961e-07	1.450878460457315e-07	2.044631742780412e-08	7.680213811687476e-08	-6.459311479223036e-09	1.944233616463946e-08
0.01	0.04887601748517908	0.1075776782020615	0.9029261786080058	0.1272630652151523	-0.3692468847543098	-0.2206307054654303	-0.214683175413174	0.205702658112754	0.2057026581127636	-0.1728799250426424	-0.1558520242090819	0.09042738228984946	0.07988659591175659	-0.03156200099325585	-0.01081296026413231	-0.00861493157352731	0.113850155143196	-0.002155372009198405	0.03415024594255753	-0.03698120302523583	0.1087822577416772	0.1087822577416728	0.02171183144610525	-0.008435322294226291	0.03639663502584931	0.008196614674679569	0.1108842817941787	-0.05963517137138402	-0.007876365040961734	-0.2419732279899398	0.1746939224904386	-0.08192168066987601	-0.04530784835951595	25.59644187544534	32.02307133859503	-6.444347451715485	-17.15871932431149	-438.8631906951069	-52.09282220357174	-26.08690121545236	-3.110412083139826	-1.094688233857779	-0.8360389893201933	11.17148282415002	-0.1386311509606095	3.424233679956623	-3.690428625229285	10.5356667793673	10.53566677936758	2.234143978469862	-0.6733870975270874	3.4803127908615	0.8551727600438306	-1.474766715411374e-08	8.204778849706549e-07	-3.001718542367241e-08	8.25650531914478e-08	-1.575020259963729e-07	2.146175406131879e-07	9.295885585968936e-08
0.02	0.04840071535282095	0.1074141248856773	0.9027981751059816	0.1289631360320926	-0.3692735221253038	-0.2201245210173519	-0.2152313258396	0.2073131921518277	0.2073131921518283	-0.1725482625842781	-0.1559738165484245	0.09096200037237087	0.08001241451302085	-0.06357324948453942	-0.02195209221541309	-0.01693707285200133	0.2258568031009202	-0.002943634809832451	0.06684393470809473	-0.07238617750750939	0.212476588087571	0.2124765880876025	0.04485934271466602	-0.0157337543939854	0.07007361562997384	0.01708255830343424	0.108023357933937	-0.06859736093980817	-0.006961838712246796	-0.2370630537097402	0.162910003958842	-0.07048600997607864	-0.04316514649867573	22.39060965194893	27.25855941633544	-5.274327836833708	-14.59884537964634	-439.7384689260039	-61.66734136310961	-26.08755112989628	-3.360088006199827	-1.136054533294528	-0.839203919718829	11.35120409829422	-0.02757199869801075	3.032467128598427	-3.319446521374115	10.29136191482103	10.29136191482882	2.404181432508529	-0.8995999445958631	3.278451320599114	0.9209711208360624	-1.884019135902921e-08	1.212883779668214e-06	-2.051222168930763e-07	1.446837889550915e-07	-3.918061901096206e-07	4.356943927055988e-07	1.664753755547393e-07
0.03	0.04760550813108007	0.1071385152392816	0.9025877470633136	0.1317729256979513	-0.3693040483928187	-0.2192986039622585	-0.2161251587772654	0.2099411105498892	0.2099411105499296	-0.1719823742059371	-0.1561659574144706	0.09182345295831973	0.08022859485982808	-0.09523941511847596	-0.0331250047971967	-0.0251572985146808	0.3355609752217717	-0.003233346849000661	0.09825840334415724	-0.1061290616886894	0.3127394590754373	0.3127394590754348	0.06804802100680599	-0.02263459017427818	0.1020939461718446	0.02604417556932147	0.1036662207294682	-0.06353531752383594	-0.005956517174116262	-0.2318210033477983	0.1565330946180711	-0.07230417193839515	-0.0399193042224173	20.26744722033222	28.25678261583168	-5.24710843642276	-13.27246848121915	-439.1650041240674	-58.721984618184	-26.0876199184778	-3.035554020885968	-1.101155593820821	-0.8148256223693624	10.69900273108447	-0.04057667088824361	3.183844299743105	-3.364007115276964	9.838571230557246	9.838571230547538	2.235847837473238	-0.5764135118711461	3.145414024870576	0.8671902011212215	-2.701346367405e-08	1.321489802674941e-06	-1.347960804024623e-07	1.594459682739617e-07	-5.18026017806877e-07	3.82661567890065e-07	1.758602758475406e-07
0.04	0.0465005046172033	0.1067525272724271	0.902294838017452	0.1356635528774162	-0.3693396529535877	-0.2181609607070757	-0.2173488801065085	0.2135606219658376	0.213560621965828	-0.1711926716827071	-0.1564253242616435	0.09300142687045784	0.08053107801362547	-0.1255325079081331	-0.04402775630719246	-0.03343327349070233	0.4420243058267702	-0.003959293462658896	0.1291891747255249	-0.138363855821299	0.4107951916547975	0.4107951916547294	0.08962217169521625	-0.02917895063958934	0.1333778808692822	0.03434311970145945	0.09930908352476969	-0.05847327410778268	-0.004951195636615628	-0.226578952985969	0.1501561852772443	-0.07412233390063232	-0.0366734619462848	18.1885652146196	29.26316761139262	-5.239371670874913	-11.98567349832719	-437.7777866115345	-55.59183156735632	-26.08634436896507	-3.085473437343502	-1.082022318937288	-0.8503537823872211	10.7030357951236	-0.1148189135960536	2.935727677659436	-3.017828511659814	9.849934233119836	9.849934233121306	2.081275911762504	-0.8283048815996106	3.131172151712072	0.7884364940860611	-3.527087512536162e-08	1.424244281935466e-06	-5.940950745906426e-08	1.732317237486097e-07	-6.42017302485247e-07	3.239769971589033e-07	1.839228747093677e-07
0.05	0.04509746595918308	0.106258675254572	0.9019187495086021	0.1406043749699716	-0.3693834264098323	-0.216718621138254	-0.2188868026073293	0.2181483620614521	0.2181483620614711	-0.17019319702059	-0.1567492035381945	0.09448759043749583	0.08091437453972471	-0.1549899082550475	-0.05471451338167049	-0.04179832456278659	0.5456849855941894	-0.004733695988232582	0.1591164569540515	-0.1689642254932404	0.506181054386063	0.5061810543859866	0.1102038079243004	-0.03546156277947129	0.1636187745684373	0.04232073293641153	0.09573517395103592	-0.05665074405489904	-0.00401900280535178	-0.2231136131534908	0.1444866591095393	-0.07290074515103005	-0.03402405439542863	16.45810771900831	28.91701143524423	-5.048701836304821	-10.83374928441186	-437.2469163210911	-55.4953090229322	-26.0828671266354	-2.863062888276027	-1.05774756256571	-0.8317946175132314	10.12931665891618	-0.04969928454347809	2.996939417528667	-3.042678366890446	9.297109480765508	9.297109480763281	2.036502214594534	-0.5079797236943588	2.935182196836789	0.8028886479552446	-3.553825313404025e-08	1.426136387374107e-06	-1.322853901879973e-07	1.837658968550885e-07	-7.039798406502527e-07	3.857704755349832e-07	1.955105118756755e-07
0.06	0.04340241538670022	0.1056588066337985	0.9014585677194535	0.1465681503784365	-0.3694331335638207	-0.2149818665627128	-0.220723036239261	0.2236728002219365	0.2236728002219357	-0.1689899270489013	-0.1571318570047978	0.0962690897850928	0.08137754018012452	-0.1839348907983454	-0.06523107689087367	-0.05025192955041349	0.6466149690161915	-0.005146033014022598	0.1880721760657469	-0.1980260820422988	0.5981348046227508	0.598134804622656	0.1303812335979005	-0.0409337886598403	0.192445036980373	0.05031694256157727	0.09216126437693596	-0.05482821400206637	-0.003086809974380842	-0.2196482733211173	0.1388171329417898	-0.07167915640149254	-0.03137464684483527	14.7681680928171	28.57666731957129	-4.873702984686632	-9.717104202611264	-435.9791844618143	-55.23202035239479	-26.07579194747917	-2.982989876619865	-1.047983605882649	-0.8680645654957359	10.15689652604017	-0.04240581363934869	2.741415054293178	-2.710125887083071	9.163511734204357	9.163511734203775	2.000433800665655	-0.6662276296971102	2.848245894267802	0.7921557721286485	-3.546920868197643e-08	1.423781656020247e-06	-2.114039026294495e-07	1.941631612302759e-07	-7.633306421199587e-07	4.526367138734731e-07	2.072465717074351e-07
0.07000000000000001	0.04142053894849462	0.1049546837238964	0.9009130719683346	0.153528618611232	-0.3694857640732145	-0.2129620264021427	-0.2228417311938204	0.2301021171602781	0.2301021171602838	-0.1675875684110675	-0.1575677494528223	0.09833277420212595	0.08192044419593127	-0.2122751093819269	-0.07555560430080725	-0.05888372424415654	0.7449834692138332	-0.005382904763838799	0.2157656753172058	-0.2254852101342227	0.6872763206365139	0.6872763206364709	0.1499078576614366	-0.04614009145151783	0.2201171933038074	0.05821852487595754	0.08781050680053532	-0.05245130470991351	-0.001969210529986921	-0.2156691122684541	0.1326152491720334	-0.07050317932139004	-0.02823325672470026	12.91608130816024	28.27668535663309	-4.696184669798289	-8.601266895072534	-434.5745712916587	-54.71873183829469	-26.06370647670177	-2.734725344051215	-1.018963232441056	-0.8663658424140429	9.602551450305604	-0.01492338862603366	2.763867735075688	-2.729651459368231	8.721590581748583	8.721590581756654	1.901598763108843	-0.4322064805609461	2.700543209689805	0.7821619771426745	-3.376996780402951e-08	1.341716133007511e-06	-2.49011401269462e-07	1.895141680077911e-07	-7.687342746769091e-07	4.676660598767221e-07	2.032458524456553e-07
0.08	0.03916022282547518	0.1041484603551154	0.9002801324860581	0.1614579167827225	-0.3695408824066936	-0.210669141174154	-0.2252281864671275	0.2374092730681388	0.2374092730681281	-0.1659953791218194	-0.1580525799040501	0.1006679487240531	0.08254096453809173	-0.2396228277584151	-0.08565116866663713	-0.06774067578187387	0.8403809567586318	-0.005643597832591984	0.2426811895487939	-0.251578145790947	0.7737025985217227	0.7737025985217313	0.1683473638814245	-0.05072138930952072	0.2467430579595784	0.06584020783233581	0.08345974922404001	-0.05007439541774929	-0.0008516110858575671	-0.2116899512157898	0.1264133654022755	-0.0693272022412722	-0.02509186660464239	11.09944893219989	27.98262506522444	-4.533466419816247	-7.506313085201159	-432.5180321000659	-54.05009948224673	-26.04504317175158	-2.784489835200853	-1.002190997062221	-0.9130959342905745	9.562693995471511	-0.04717007742677247	2.58581805031895	-2.436887400042971	8.620464108493577	8.620464108492875	1.783010231955939	-0.5412266429622634	2.638987560734736	0.7361759005281086	-3.196555296312239e-08	1.254507978274847e-06	-2.839407699868008e-07	1.838944484886824e-07	-7.706574447233591e-07	4.793510902454395e-07	1.982298571133245e-07
